<svg width="173" height="30" viewBox="0 0 173 30" fill="none" xmlns="http://www.w3.org/2000/svg">
<g clip-path="url(#clip0_5_37)">
<path d="M125.081 22C123.664 23.4167 122.015 24.125 120.131 24.125C118.965 24.125 117.865 23.8917 116.832 23.425C115.815 22.9583 114.923 22.3167 114.157 21.5C113.407 20.6833 112.807 19.725 112.357 18.625C111.923 17.5083 111.707 16.3083 111.707 15.025C111.707 13.8083 111.923 12.6667 112.357 11.6C112.807 10.5167 113.415 9.575 114.182 8.775C114.965 7.95833 115.882 7.31667 116.931 6.85C117.981 6.36667 119.123 6.125 120.356 6.125C122.023 6.125 123.448 6.475 124.631 7.175C125.831 7.875 126.731 8.81667 127.331 10L124.756 11.9C124.306 11.0167 123.673 10.3417 122.856 9.875C122.056 9.40833 121.181 9.175 120.231 9.175C119.481 9.175 118.79 9.33333 118.156 9.65C117.54 9.96667 117.006 10.4 116.557 10.95C116.123 11.5 115.782 12.1333 115.532 12.85C115.298 13.5667 115.182 14.325 115.182 15.125C115.182 15.9583 115.315 16.7417 115.582 17.475C115.848 18.1917 116.215 18.8167 116.682 19.35C117.148 19.8833 117.698 20.3083 118.331 20.625C118.981 20.925 119.681 21.075 120.431 21.075C122.148 21.075 123.698 20.2667 125.081 18.65V17.4H121.506V14.875H127.931V24H125.081V22Z" fill="#BDB5B5"/>
<path d="M136.621 24.25C135.571 24.25 134.621 24.075 133.771 23.725C132.921 23.3583 132.196 22.8667 131.596 22.25C130.996 21.6333 130.529 20.9167 130.196 20.1C129.879 19.2833 129.721 18.425 129.721 17.525C129.721 16.5917 129.879 15.7167 130.196 14.9C130.513 14.0667 130.971 13.3417 131.571 12.725C132.171 12.0917 132.896 11.5917 133.746 11.225C134.612 10.8583 135.579 10.675 136.646 10.675C137.712 10.675 138.662 10.8583 139.496 11.225C140.345 11.5917 141.062 12.0833 141.645 12.7C142.245 13.3167 142.695 14.0333 142.995 14.85C143.312 15.6667 143.47 16.5167 143.47 17.4C143.47 17.6167 143.462 17.825 143.445 18.025C143.445 18.225 143.429 18.3917 143.395 18.525H133.271C133.321 19.0417 133.446 19.5 133.646 19.9C133.846 20.3 134.104 20.6417 134.421 20.925C134.737 21.2083 135.096 21.425 135.496 21.575C135.896 21.725 136.312 21.8 136.746 21.8C137.412 21.8 138.037 21.6417 138.621 21.325C139.221 20.9917 139.629 20.5583 139.845 20.025L142.72 20.825C142.237 21.825 141.462 22.65 140.395 23.3C139.345 23.9333 138.087 24.25 136.621 24.25ZM140.02 16.35C139.937 15.3667 139.57 14.5833 138.92 14C138.287 13.4 137.512 13.1 136.596 13.1C136.146 13.1 135.721 13.1833 135.321 13.35C134.937 13.5 134.596 13.7167 134.296 14C133.996 14.2833 133.746 14.625 133.546 15.025C133.362 15.425 133.254 15.8667 133.221 16.35H140.02Z" fill="#BDB5B5"/>
<path d="M151.586 24.25C150.536 24.25 149.586 24.075 148.736 23.725C147.886 23.3583 147.161 22.8667 146.561 22.25C145.961 21.6333 145.494 20.9167 145.161 20.1C144.844 19.2833 144.686 18.425 144.686 17.525C144.686 16.5917 144.844 15.7167 145.161 14.9C145.478 14.0667 145.936 13.3417 146.536 12.725C147.136 12.0917 147.861 11.5917 148.711 11.225C149.577 10.8583 150.544 10.675 151.611 10.675C152.677 10.675 153.627 10.8583 154.46 11.225C155.31 11.5917 156.027 12.0833 156.61 12.7C157.21 13.3167 157.66 14.0333 157.96 14.85C158.277 15.6667 158.435 16.5167 158.435 17.4C158.435 17.6167 158.427 17.825 158.41 18.025C158.41 18.225 158.394 18.3917 158.36 18.525H148.236C148.286 19.0417 148.411 19.5 148.611 19.9C148.811 20.3 149.069 20.6417 149.386 20.925C149.702 21.2083 150.061 21.425 150.461 21.575C150.861 21.725 151.277 21.8 151.711 21.8C152.377 21.8 153.002 21.6417 153.586 21.325C154.186 20.9917 154.594 20.5583 154.81 20.025L157.685 20.825C157.202 21.825 156.427 22.65 155.36 23.3C154.31 23.9333 153.052 24.25 151.586 24.25ZM154.985 16.35C154.902 15.3667 154.535 14.5833 153.886 14C153.252 13.4 152.477 13.1 151.561 13.1C151.111 13.1 150.686 13.1833 150.286 13.35C149.902 13.5 149.561 13.7167 149.261 14C148.961 14.2833 148.711 14.625 148.511 15.025C148.328 15.425 148.219 15.8667 148.186 16.35H154.985Z" fill="#BDB5B5"/>
<path d="M169.425 24L165.626 18.325L163.826 20.1V24H160.476V5.75H163.826V16.825L169.075 10.925H172.65L167.775 16.475L173 24H169.425Z" fill="#BDB5B5"/>
</g>
<path d="M51.7721 6.25H54.8219L61.5715 24H58.0217L56.3718 19.575H50.1721L48.5472 24H44.9974L51.7721 6.25ZM55.7468 17.15L53.297 10.175L50.7471 17.15H55.7468Z" fill="#2A7AE4"/>
<path d="M63.1683 5.75H66.5181V19.8C66.5181 20.2833 66.6348 20.6583 66.8681 20.925C67.1014 21.1917 67.4347 21.325 67.868 21.325C68.068 21.325 68.2847 21.2917 68.518 21.225C68.768 21.1583 69.0013 21.075 69.2179 20.975L69.6679 23.525C69.2179 23.7417 68.693 23.9083 68.093 24.025C67.493 24.1417 66.9514 24.2 66.4681 24.2C65.4182 24.2 64.6015 23.925 64.0182 23.375C63.4516 22.8083 63.1683 22.0083 63.1683 20.975V5.75Z" fill="#2A7AE4"/>
<path d="M75.1272 24.25C73.7773 24.25 72.7523 23.8167 72.0524 22.95C71.3524 22.0833 71.0024 20.8 71.0024 19.1V10.9H74.3522V18.375C74.3522 20.3917 75.0772 21.4 76.5271 21.4C77.1771 21.4 77.802 21.2083 78.402 20.825C79.0186 20.425 79.5186 19.825 79.9019 19.025V10.9H83.2517V20.15C83.2517 20.5 83.3101 20.75 83.4267 20.9C83.56 21.05 83.7684 21.1333 84.0517 21.15V24C83.7184 24.0667 83.435 24.1083 83.2017 24.125C82.9851 24.1417 82.7851 24.15 82.6018 24.15C82.0018 24.15 81.5102 24.0167 81.1268 23.75C80.7602 23.4667 80.5435 23.0833 80.4769 22.6L80.4019 21.55C79.8186 22.45 79.0686 23.125 78.152 23.575C77.2354 24.025 76.2271 24.25 75.1272 24.25Z" fill="#2A7AE4"/>
<path d="M94.3802 13.8C93.3636 13.8167 92.4553 14.0167 91.6553 14.4C90.8554 14.7667 90.2804 15.325 89.9305 16.075V24H86.5806V10.9H89.6555V13.7C89.8888 13.25 90.1638 12.85 90.4804 12.5C90.7971 12.1333 91.1387 11.8167 91.5054 11.55C91.872 11.2833 92.2387 11.0833 92.6053 10.95C92.9886 10.8 93.3553 10.725 93.7052 10.725C93.8886 10.725 94.0219 10.725 94.1052 10.725C94.2052 10.725 94.2969 10.7333 94.3802 10.75V13.8Z" fill="#2A7AE4"/>
<path d="M99.652 24.25C99.0187 24.25 98.427 24.15 97.8771 23.95C97.3271 23.7333 96.8521 23.4417 96.4521 23.075C96.0522 22.6917 95.7355 22.25 95.5022 21.75C95.2856 21.25 95.1772 20.7 95.1772 20.1C95.1772 19.4833 95.3105 18.9167 95.5772 18.4C95.8605 17.8667 96.2438 17.4167 96.7271 17.05C97.2271 16.6833 97.8187 16.4 98.502 16.2C99.1853 15.9833 99.9353 15.875 100.752 15.875C101.335 15.875 101.902 15.925 102.452 16.025C103.018 16.125 103.518 16.2667 103.952 16.45V15.7C103.952 14.8333 103.702 14.1667 103.202 13.7C102.719 13.2333 101.994 13 101.027 13C100.327 13 99.6436 13.125 98.977 13.375C98.3104 13.625 97.6271 13.9917 96.9271 14.475L95.9022 12.35C97.5854 11.2333 99.402 10.675 101.352 10.675C103.235 10.675 104.693 11.1417 105.727 12.075C106.777 12.9917 107.301 14.325 107.301 16.075V20.15C107.301 20.5 107.36 20.75 107.477 20.9C107.61 21.05 107.818 21.1333 108.102 21.15V24C107.535 24.1167 107.043 24.175 106.627 24.175C105.993 24.175 105.502 24.0333 105.152 23.75C104.818 23.4667 104.61 23.0917 104.527 22.625L104.452 21.9C103.868 22.6667 103.16 23.25 102.327 23.65C101.494 24.05 100.602 24.25 99.652 24.25ZM100.602 21.8C101.169 21.8 101.702 21.7 102.202 21.5C102.719 21.3 103.118 21.0333 103.402 20.7C103.768 20.4167 103.952 20.1 103.952 19.75V18.25C103.552 18.1 103.118 17.9833 102.652 17.9C102.185 17.8 101.735 17.75 101.302 17.75C100.435 17.75 99.727 17.95 99.177 18.35C98.627 18.7333 98.352 19.225 98.352 19.825C98.352 20.3917 98.5687 20.8667 99.002 21.25C99.4353 21.6167 99.9686 21.8 100.602 21.8Z" fill="#2A7AE4"/>
<path d="M40.9558 23.5208L38.6851 7.56246C38.1018 3.45829 34.5812 0.416626 30.4356 0.416626H11.5617C7.41605 0.416626 3.89542 3.45829 3.31212 7.56246L1.04141 23.5208C0.583105 26.7291 3.06213 29.5833 6.29112 29.5833C7.7077 29.5833 9.04096 29.0208 10.0409 28.0208L14.749 23.3333H27.2483L31.9355 28.0208C32.9354 29.0208 34.2895 29.5833 35.6853 29.5833C38.9351 29.5833 41.4141 26.7291 40.9558 23.5208ZM18.9154 12.9166H14.749V17.0833H12.6658V12.9166H8.49932V10.8333H12.6658V6.66663H14.749V10.8333H18.9154V12.9166ZM27.2483 10.8333C26.1025 10.8333 25.165 9.89579 25.165 8.74996C25.165 7.60413 26.1025 6.66663 27.2483 6.66663C28.394 6.66663 29.3315 7.60413 29.3315 8.74996C29.3315 9.89579 28.394 10.8333 27.2483 10.8333ZM31.4147 17.0833C30.2689 17.0833 29.3315 16.1458 29.3315 15C29.3315 13.8541 30.2689 12.9166 31.4147 12.9166C32.5605 12.9166 33.4979 13.8541 33.4979 15C33.4979 16.1458 32.5605 17.0833 31.4147 17.0833Z" fill="#2A7AE4"/>
<defs>
<clipPath id="clip0_5_37">
<rect width="62" height="20" fill="white" transform="translate(111 5)"/>
</clipPath>
</defs>
</svg>
